HIERARCHY
ROOT hip
{
	OFFSET 0.000000 0.000000 0.000000 
	CHANNELS 6 Xposition Yposition Zposition Xrotation Zrotation Yrotation
	JOINT abdomen
	{
		OFFSET 0.000000 3.402643 0.000000 
		CHANNELS 3 Xrotation Zrotation Yrotation
		JOINT chest
		{
			OFFSET 0.000000 8.438565 -0.680529 
			CHANNELS 3 Xrotation Zrotation Yrotation
			JOINT neck
			{
				OFFSET 0.000000 10.207942 -0.272212 
				CHANNELS 3 Xrotation Zrotation Yrotation
				JOINT head
				{
					OFFSET 0.000000 3.130431 0.000000 
					CHANNELS 3 Xrotation Zrotation Yrotation
					End Site
					{
						OFFSET 0.000000 3.130435 0.000000 
					}
				}
			}
			JOINT lCollar
			{
				OFFSET 3.470700 6.669187 -0.816635 
				CHANNELS 3 Yrotation Zrotation Xrotation
				JOINT lShldr
				{
					OFFSET 3.198488 0.000000 0.000000 
					CHANNELS 3 Zrotation Yrotation Xrotation
					JOINT lForeArm
					{
						OFFSET 10.139888 0.000000 0.000000 
						CHANNELS 3 Yrotation Zrotation Xrotation
						JOINT lHand
						{
							OFFSET 8.370511 0.000000 0.000000 
							CHANNELS 3 Zrotation Yrotation Xrotation
							End Site
							{
								OFFSET 4.083176 0.000000 0.000000 
							}
						}
					}
				}
			}
			JOINT rCollar
			{
				OFFSET -3.470700 6.669187 -0.816635 
				CHANNELS 3 Yrotation Zrotation Xrotation
				JOINT rShldr
				{
					OFFSET -3.198488 0.000000 0.000000 
					CHANNELS 3 Zrotation Yrotation Xrotation
					JOINT rForeArm
					{
						OFFSET -10.139888 0.000000 0.000000 
						CHANNELS 3 Yrotation Zrotation Xrotation
						JOINT rHand
						{
							OFFSET -8.370511 0.000000 0.000000 
							CHANNELS 3 Zrotation Yrotation Xrotation
							End Site
							{
								OFFSET -4.083176 0.000000 0.000000 
							}
						}
					}
				}
			}
		}
	}
	JOINT lThigh
	{
		OFFSET 5.308129 -1.633274 1.361059 
		CHANNELS 3 Xrotation Zrotation Yrotation
		JOINT lShin
		{
			OFFSET -2.041588 -20.007561 0.000000 
			CHANNELS 3 Xrotation Zrotation Yrotation
			JOINT lFoot
			{
				OFFSET 0.000000 -19.190928 -1.224953 
				CHANNELS 3 Xrotation Yrotation Zrotation
				End Site
				{
					OFFSET 0.000000 -2.449906 4.627600 
				}
			}
		}
	}
	JOINT rThigh
	{
		OFFSET -5.308129 -1.633274 1.361059 
		CHANNELS 3 Xrotation Zrotation Yrotation
		JOINT rShin
		{
			OFFSET 2.041588 -20.007561 0.000000 
			CHANNELS 3 Xrotation Zrotation Yrotation
			JOINT rFoot
			{
				OFFSET 0.000000 -19.190928 -1.224953 
				CHANNELS 3 Xrotation Yrotation Zrotation
				End Site
				{
					OFFSET 0.000000 -2.449906 4.627600 
				}
			}
		}
	}
}
MOTION
Frames: 18
Frame Time: 0.016667
1.896210 53.401405 -0.770504 -4.670461 -0.114081 -13.222688 25.402027 6.845543 -3.271149 6.027050 6.449901 -11.227958 15.501454 15.867832 3.147696 33.616982 16.547567 -42.013889 -24.481564 -0.915233 -0.053912 -75.305046 19.416576 -36.451977 -39.775814 -5.000000 23.291645 -16.022818 -1.437582 7.685327 8.304620 15.380493 -0.823665 54.196949 -26.898478 -39.450527 90.210464 5.000000 -0.132998 7.285331 -30.000000 -38.381645 15.122916 7.158191 21.896532 5.613682 -5.334098 -0.738871 -13.328135 5.133668 -2.428314 10.087838 -12.576376 10.361869 -2.565609 3.280592 -0.054227 -2.941857 -17.294876 7.428289 
1.854609 53.401234 -0.770717 -4.720378 -0.152168 -13.125056 25.406378 6.735262 -3.283954 6.031790 6.430818 -11.218319 15.528544 15.829266 3.153535 33.663658 16.479681 -41.848034 -24.413252 -0.964006 -0.056428 -75.247154 19.160837 -36.214077 -40.043159 -5.000000 22.939405 -16.050158 -1.462646 7.764976 8.323860 15.360986 -0.822655 54.307671 -26.763613 -39.418079 89.238937 5.000000 0.683706 7.574643 -30.000000 -38.547878 15.127666 7.245383 21.805838 5.634407 -5.297984 -0.729652 -13.284286 5.206297 -2.490242 10.182513 -12.464568 10.284946 -2.563195 3.257667 -0.053279 -2.967119 -17.307747 7.389451 
1.809554 53.401295 -0.770208 -4.758494 -0.199808 -13.017669 25.418919 6.620080 -3.309569 6.037779 6.402047 -11.207591 15.552896 15.789433 3.147397 33.719410 16.406311 -41.673126 -24.335032 -1.026558 -0.050551 -75.183037 18.913120 -35.982746 -40.326294 -5.000000 22.573950 -16.077591 -1.487640 7.844644 8.350073 15.333146 -0.811822 54.410187 -26.635223 -39.376434 88.275177 5.000000 1.498118 7.888289 -30.000000 -38.734097 15.159045 7.362624 21.721119 5.663211 -5.266582 -0.750642 -13.287853 5.214497 -2.562801 10.272205 -12.341335 10.231261 -2.552464 3.227414 -0.080704 -3.017254 -17.317900 7.326049 
1.760652 53.402294 -0.768878 -4.811305 -0.228539 -12.812632 25.393980 6.474011 -3.336316 6.032502 6.334949 -11.118928 15.639792 15.802876 3.176547 33.731171 16.352303 -41.572887 -24.354618 -1.085074 -0.053565 -75.168800 18.696373 -35.804417 -40.486237 -5.000000 22.310209 -15.994792 -1.453508 7.677845 8.410880 15.302462 -0.819623 54.637806 -26.654783 -39.492916 87.604301 5.000000 2.068464 8.061633 -30.000000 -38.809761 15.189548 7.499843 21.581047 5.681429 -5.247706 -0.712707 -13.259324 5.112460 -2.660694 10.414926 -12.237665 10.052417 -2.555524 3.250807 -0.062140 -3.072096 -17.374184 7.241078 
1.709847 53.403641 -0.767542 -4.876178 -0.247775 -12.617320 25.369936 6.324555 -3.355024 6.024787 6.277381 -11.039973 15.727261 15.825950 3.204241 33.745483 16.300413 -41.466339 -24.374218 -1.153342 -0.057081 -75.148628 18.478453 -35.634792 -40.652023 -5.000000 22.050606 -15.902372 -1.422867 7.501752 8.459273 15.273201 -0.818107 54.865234 -26.673906 -39.614548 86.936104 5.000000 2.630002 8.253678 -30.000000 -38.904644 15.203397 7.607153 21.454214 5.712663 -5.198944 -0.713609 -13.233671 5.039165 -2.764735 10.552311 -12.150303 9.882629 -2.561981 3.296262 -0.045058 -3.116539 -17.403841 7.136303 
1.660980 53.404945 -0.768306 -4.939316 -0.276625 -12.373229 25.355139 6.184217 -3.369206 6.017169 6.209980 -10.979436 15.771813 15.828477 3.225537 33.764233 16.237930 -41.303356 -24.325626 -1.198083 -0.068490 -75.171425 18.263021 -35.479237 -40.778717 -5.000000 21.826006 -15.842118 -1.378615 7.394823 8.517147 15.224430 -0.815579 55.097282 -26.698627 -39.710278 86.288101 5.000000 3.186014 8.400716 -30.000000 -38.994518 15.211231 7.724673 21.270315 5.729012 -5.181288 -0.695204 -13.197350 4.997699 -2.831513 10.692100 -12.046826 9.646473 -2.526988 3.311791 -0.023571 -3.160395 -17.427408 7.047608 
1.614230 53.406288 -0.771735 -5.014667 -0.296009 -12.099798 25.380474 6.043386 -3.383684 6.008428 6.142435 -10.939447 15.790781 15.818838 3.224333 33.787052 16.164383 -41.086670 -24.198751 -1.256618 -0.071513 -75.229530 18.037169 -35.342365 -40.867447 -5.000000 21.642361 -15.796657 -1.344961 7.352406 8.574593 15.146407 -0.811536 55.352089 -26.712309 -39.819275 85.677002 5.000000 3.704435 8.517972 -30.000000 -39.103111 15.219429 7.841398 21.056364 5.751902 -5.111281 -0.704320 -13.161550 4.997149 -2.898954 10.844759 -11.915397 9.373124 -2.478054 3.311118 -0.039807 -3.264724 -17.409449 6.997754 
1.566466 53.407269 -0.773181 -5.088202 -0.324983 -11.826367 25.385229 5.902905 -3.397780 5.992144 6.065324 -10.879991 15.812490 15.810460 3.237772 33.802498 16.097322 -40.870003 -24.101160 -1.305396 -0.074031 -75.303139 17.834955 -35.243137 -40.946793 -5.000000 21.483139 -15.760933 -1.309999 7.310269 8.651433 15.058629 -0.804447 55.607254 -26.747175 -39.921288 85.049706 5.000000 4.236337 8.667288 -30.000000 -39.234104 15.214718 7.977441 20.825371 5.792006 -5.081176 -0.678190 -13.140460 4.940559 -2.994483 11.003614 -11.803190 9.088586 -2.426633 3.325712 -0.017551 -3.354549 -17.431578 6.902546 
1.516203 53.407730 -0.771089 -5.163967 -0.344440 -11.552992 25.364832 5.711500 -3.410436 5.976827 5.960024 -10.740763 15.862064 15.852806 3.262547 33.792702 16.030067 -40.686131 -24.091249 -1.358147 -0.067630 -75.419403 17.771606 -35.313087 -40.991776 -5.000000 21.452524 -15.709345 -1.330673 7.221963 8.757721 14.980599 -0.800411 55.875816 -26.827538 -40.040592 84.304077 5.000000 4.866579 9.006384 -30.000000 -39.498299 15.241717 8.134630 20.590883 5.818401 -5.080179 -0.699218 -13.096395 4.926882 -3.046345 11.171435 -11.678701 8.805825 -2.388198 3.316926 -0.024362 -3.410486 -17.369896 6.856405 
1.464782 53.407681 -0.765632 -5.238006 -0.373503 -11.279563 25.344814 5.529461 -3.418789 5.962142 5.854783 -10.592858 15.924205 15.896406 3.296638 33.772598 15.962173 -40.502281 -24.110826 -1.397158 -0.069639 -75.550392 17.740589 -35.421646 -41.037746 -5.000000 21.442736 -15.658673 -1.363171 7.126818 8.864013 14.902568 -0.796374 56.141972 -26.915545 -40.156467 83.539642 5.000000 5.502462 9.376541 -30.000000 -39.781746 15.258117 8.290171 20.345583 5.859833 -5.092139 -0.703681 -13.096872 4.941449 -3.104433 11.353214 -11.536205 8.514656 -2.368462 3.317726 -0.052383 -3.497419 -17.331726 6.775478 
1.414057 53.407017 -0.755348 -5.324085 -0.393052 -10.986601 25.325359 5.357659 -3.402555 5.966776 5.739659 -10.444914 15.895484 15.906046 3.295178 33.745224 15.851151 -40.298634 -24.052567 -1.471198 -0.082573 -75.605240 17.673729 -35.464893 -40.995647 -5.000000 21.535831 -15.628467 -1.379960 7.079110 8.931112 14.814790 -0.791832 56.363594 -26.950541 -40.211750 82.729652 5.000000 6.189105 9.675325 -30.000000 -40.107502 15.290966 8.437896 20.068432 5.875546 -5.103395 -0.724317 -13.068954 4.948515 -3.167506 11.548467 -11.418976 8.220452 -2.361807 3.322023 -0.061689 -3.568471 -17.309891 6.701487 
1.363696 53.405693 -0.739635 -5.420198 -0.412643 -10.683877 25.296389 5.172818 -3.381362 5.990741 5.614659 -10.295976 15.794274 15.862447 3.261088 33.699646 15.691217 -40.063557 -23.916040 -1.598003 -0.089384 -75.600525 17.569410 -35.452240 -40.884689 -5.000000 21.718185 -15.599383 -1.383571 7.078403 8.949391 14.727023 -0.787289 56.519234 -26.940392 -40.185303 81.895950 5.000000 6.898934 9.907970 -30.000000 -40.482994 15.314674 8.582308 19.751518 5.910573 -5.093445 -0.697990 -13.054793 4.977872 -3.207877 11.784908 -11.295933 7.917200 -2.368854 3.317003 -0.062125 -3.644548 -17.318272 6.623525 
1.314754 53.404320 -0.725309 -5.508511 -0.422654 -10.381151 25.277637 5.002609 -3.343656 6.003397 5.499297 -10.157790 15.712092 15.809198 3.225795 33.650677 15.513743 -39.793396 -23.769753 -1.715057 -0.095440 -75.587425 17.470757 -35.436665 -40.743824 -5.000000 21.925568 -15.589917 -1.382150 7.087570 8.987071 14.629498 -0.782239 56.681339 -26.932463 -40.158577 81.080566 5.000000 7.602222 10.146126 -30.000000 -40.893436 15.354219 8.719672 19.442802 5.895175 -5.081085 -0.705689 -13.014771 4.995351 -3.276618 11.998305 -11.166151 7.585413 -2.360174 3.300091 -0.041294 -3.742022 -17.337236 6.559709 
1.268125 53.403240 -0.716471 -5.560078 -0.423147 -10.010067 25.188879 4.838327 -3.345094 5.966860 5.383880 -10.038239 15.676987 15.647354 3.187939 33.592735 15.242773 -39.358696 -23.623564 -1.880874 -0.104015 -75.566833 17.464315 -35.456745 -40.495270 -5.000000 22.235737 -15.665672 -1.396699 7.187012 9.122280 14.522208 -0.776678 56.805984 -27.014454 -40.077187 80.275085 5.000000 8.295819 10.458657 -30.000000 -41.641861 15.322565 8.855406 19.112854 5.919230 -5.053398 -0.687711 -12.987887 4.953444 -3.343110 12.163979 -11.029589 7.216805 -2.330647 3.308180 -0.059177 -3.825732 -17.311138 6.486602 
1.222636 53.402222 -0.709517 -5.601954 -0.423634 -9.629219 25.091108 4.652650 -3.344797 5.921093 5.268510 -9.919682 15.650846 15.466197 3.150396 33.521988 14.963703 -38.903893 -23.467634 -2.046693 -0.112590 -75.539513 17.475470 -35.480724 -40.222412 -5.000000 22.554533 -15.751895 -1.401802 7.314688 9.267132 14.405161 -0.768180 56.927521 -27.108528 -40.007824 79.486801 5.000000 8.982973 10.771347 -30.000000 -42.438026 15.278532 9.022932 18.818394 5.977962 -5.043994 -0.711698 -12.975782 4.848258 -3.430307 12.333190 -10.917066 6.835294 -2.289551 3.314763 -0.017725 -3.925018 -17.344385 6.406550 
1.176084 53.401077 -0.699460 -5.682825 -0.424091 -9.258135 25.003593 4.480883 -3.328140 5.866257 5.143375 -9.771844 15.564867 15.303017 3.100644 33.491367 14.589971 -38.381527 -23.292196 -2.212515 -0.121164 -75.512482 17.477205 -35.507160 -39.862640 -5.000000 22.932983 -15.830125 -1.389150 7.508370 9.402366 14.297867 -0.762631 57.032772 -27.217146 -39.901516 78.728508 5.000000 9.638617 11.085805 -30.000000 -43.248577 15.264314 9.148305 18.526463 6.004594 -5.012616 -0.692689 -12.943913 4.824016 -3.487398 12.517880 -10.798938 6.433966 -2.235166 3.350359 -0.044471 -4.028377 -17.263603 6.319396 
1.128825 53.399860 -0.687281 -5.791486 -0.434178 -8.886980 24.926846 4.319866 -3.286057 5.795321 4.998953 -9.574416 15.411417 15.149438 3.052023 33.463547 14.137819 -37.818710 -23.087513 -2.388093 -0.130244 -75.483368 17.485949 -35.521858 -39.408585 -5.000000 23.358339 -15.872786 -1.369180 7.778593 9.527847 14.190579 -0.757080 57.109398 -27.336573 -39.763550 78.043869 5.000000 10.219813 11.421520 -30.000000 -44.062672 15.274724 9.304821 18.280848 6.049142 -4.989113 -0.705645 -12.925230 4.743627 -3.573133 12.729697 -10.677400 5.972966 -2.164393 3.396469 -0.041549 -4.167278 -17.194485 6.234913 
1.080684 53.398296 -0.671224 -5.890510 -0.444266 -8.515896 24.859762 4.140666 -3.251272 5.723783 4.854444 -9.377043 15.268064 14.995819 3.000866 33.450077 13.680837 -37.239845 -22.882879 -2.573425 -0.139825 -75.454269 17.494709 -35.536552 -38.967007 -5.000000 23.775473 -15.925051 -1.350152 8.039622 9.650925 14.084924 -0.742189 57.186333 -27.456579 -39.621593 77.349655 5.000000 10.812597 11.737275 -30.000000 -44.875622 15.302351 9.453427 18.013159 6.078312 -4.984360 -0.707868 -12.892055 4.625401 -3.634654 12.953842 -10.550266 5.543560 -2.115901 3.426045 -0.058856 -4.283247 -17.091982 6.167327 
